<?xml version="1.0" encoding="UTF-8"?>
<svg width="270px" height="30px" viewBox="0 0 270 30" version="1.1" xmlns="http://www.w3.org/2000/svg" xmlns:xlink="http://www.w3.org/1999/xlink">
    <title>colorhunt-icons</title>
    <g id="colorhunt-icons" stroke="none" stroke-width="1" fill="none" fill-rule="evenodd" stroke-linejoin="round">
        <g id="Star" transform="translate(30.000000, 0.000000)" fill="#FFFFFF" stroke="#000000">
            <path d="M14.2200156,20.2551086 L8.82590772,21.8282948 C8.29571185,21.9829259 7.74054989,21.6784704 7.5859188,21.1482746 C7.53259155,20.9654272 7.53259155,20.7711532 7.5859188,20.5883058 L9.15910495,15.1941979 C9.2124322,15.0113506 9.2124322,14.8170766 9.15910495,14.6342292 L7.5859188,9.24012129 C7.4312877,8.70992541 7.73574312,8.15476346 8.26593899,8.00013236 C8.44878637,7.94680511 8.64306035,7.94680511 8.82590772,8.00013236 L14.2200156,9.57331851 C14.402863,9.62664576 14.597137,9.62664576 14.7799844,9.57331851 L20.1740923,8.00013236 C20.7042882,7.84550127 21.2594501,8.14995668 21.4140812,8.68015256 C21.4674085,8.86299993 21.4674085,9.05727391 21.4140812,9.24012129 L19.8408951,14.6342292 C19.7875678,14.8170766 19.7875678,15.0113506 19.8408951,15.1941979 L21.4140812,20.5883058 C21.5687123,21.1185017 21.2642569,21.6736637 20.734061,21.8282948 C20.5512136,21.881622 20.3569397,21.881622 20.1740923,21.8282948 L14.7799844,20.2551086 C14.597137,20.2017814 14.402863,20.2017814 14.2200156,20.2551086 Z" transform="translate(14.500000, 14.914214) rotate(-315.000000) translate(-14.500000, -14.914214) "></path>
        </g>
        <g id="Group" stroke="#000000" stroke-linecap="round">
            <g transform="translate(8.000000, 8.000000)">
                <circle id="Oval" cx="5.5" cy="5.5" r="5.5"></circle>
                <line x1="10" y1="10" x2="14" y2="14" id="Path-3"></line>
            </g>
        </g>
        <g id="Oval" transform="translate(60.000000, 0.000000)" fill="#FFFFFF" stroke="#000000">
            <path d="M14,24 C18.418278,24 22,20 21,14 C20.3333333,10 18,7 14,5 C15.3333333,11.6666667 14.6666667,15 12,15 C11.0945421,15 10.4965295,14.5388321 10.2059621,13.6164964 L10.2059726,13.616493 C10.0400223,13.0897239 9.47846224,12.7972225 8.95169313,12.9631729 C8.78722149,13.0149871 8.63894306,13.1084511 8.52125674,13.2344891 C7.50708558,14.3206309 7,15.5758012 7,17 C7,21 10,24 14,24 Z"></path>
        </g>
        <g id="Group" transform="translate(90.000000, 0.000000)" stroke="#000000" stroke-linecap="round">
            <g id="Path">
                <path d="M14.0973402,15.9795815 C14.2810172,15.9242372 14.4186001,15.7885868 14.4619635,15.6149671 C14.5137566,15.3064325 14.3298016,15.0505832 14.0973447,14.9034676 C13.7302821,14.6928381 13.3024901,14.6859957 12.9401042,14.8223365 C12.4196621,15.0434987 12.0621636,15.488011 11.9002513,15.979577 C11.6937559,16.6222044 11.805301,17.3476488 12.1474467,17.929475 C12.561675,18.6338901 13.2982753,19.1264874 14.0973447,19.2976365 C15.0363555,19.4987378 16.0481843,19.2656598 16.8399001,18.7221325 C17.7512007,18.0964541 18.3687184,17.0722499 18.5363701,15.979577 C18.7247103,14.7521192 18.3528814,13.4643086 17.6008119,12.4761098 C16.7637193,11.3761283 15.4677481,10.6449894 14.0973447,10.4644242 C12.5813951,10.264677 11.0005191,10.7349088 9.80121997,11.6834523 C8.48798585,12.7221394 7.64053554,14.3148528 7.46122582,15.979577 C7.26630776,17.7894888 7.85468489,19.6604259 9.00856248,21.0683144 C10.2550319,22.5891962 12.1391515,23.5570383 14.0972998,23.7366171 C16.2007702,23.9295533 18.3614994,23.2197621 19.9787844,21.860927 C21.7086143,20.4074825 22.8030358,18.2323152 22.9754404,15.9794425 C23.1584269,13.5883771 22.3095866,11.1498725 20.7397409,9.33704625 C19.0778415,7.41795242 16.6293379,6.20968556 14.0973447,6.02521939"></path>
            </g>
        </g>
        <g id="Group" transform="translate(180.000000, 0.000000)" stroke="#000000" stroke-linecap="round">
            <g transform="translate(6.500000, 8.000000)">
                <path d="M16,8.5 L16,10.5 C16,11.6045695 15.1045695,12.5 14,12.5 L2,12.5 C0.8954305,12.5 1.3527075e-16,11.6045695 0,10.5 L0,8.5 L0,8.5" id="Path"></path>
                <polyline id="Path" transform="translate(8.000000, 4.500000) rotate(-315.000000) translate(-8.000000, -4.500000) " points="10.5 2 10.5 7 5.5 7"></polyline>
                <line x1="8" y1="7" x2="8" y2="0" id="Path-8"></line>
            </g>
        </g>
        <g id="Combined-Shape" transform="translate(150.000000, 0.000000)" fill="#FFFFFF" stroke="#111111">
            <path d="M14.6066017,6.39339828 C16.3223305,4.67766953 19.1040764,4.67766953 20.8198052,6.39339828 C21.5790923,7.15268541 22.0023607,8.12074779 22.0896104,9.11280054 L22.1066017,9.10660172 L22.1066017,18.1066017 C22.1066017,19.2111712 21.2111712,20.1066017 20.1066017,20.1066017 L11.1066017,20.1066017 L11.1128005,20.0896104 C10.1207478,20.0023607 9.15268541,19.5790923 8.39339828,18.8198052 C6.67766953,17.1040764 6.67766953,14.3223305 8.39339828,12.6066017 C10.0126667,10.9873333 12.5814563,10.8962961 14.3074911,12.3334901 L14.3149351,12.3149351 L14.3334901,12.3074911 C12.8962961,10.5814563 12.9873333,8.01266671 14.6066017,6.39339828 Z" transform="translate(14.606602, 12.606602) rotate(-315.000000) translate(-14.606602, -12.606602) "></path>
        </g>
        <g id="Group" transform="translate(120.000000, 0.000000)" stroke="#000000" stroke-linecap="round">
            <g transform="translate(10.000000, 10.000000)">
                <line x1="4.5" y1="0" x2="1.5" y2="10.2666667" id="Line-4"></line>
                <line x1="9.5" y1="0" x2="6.5" y2="10.2666667" id="Line-4"></line>
                <line x1="1.41666667" y1="3.13333333" x2="10.5833333" y2="3.13333333" id="Line"></line>
                <line x1="0.416666667" y1="7.13333333" x2="9.58333333" y2="7.13333333" id="Line"></line>
            </g>
        </g>
        <g id="Group" transform="translate(210.000000, 0.000000)" stroke="#000000" stroke-linecap="round">
            <g id="Path" transform="translate(14.757130, 15.535763) rotate(-315.000000) translate(-14.757130, -15.535763) translate(9.757130, 6.899400)">
                <path d="M7.27272727,12.7272727 C7.27272727,13.1313131 7.27272727,13.7373737 7.27272727,14.5454545 C7.27272727,16.0516857 6.05168568,17.2727273 4.54545455,17.2727273 L2.72727273,17.2727273 C1.22104159,17.2727273 9.09494702e-13,16.0516857 9.09494702e-13,14.5454545 L9.09494702e-13,9.09090909 C9.09494702e-13,7.58467796 1.22104159,6.36363636 2.72727273,6.36363636 L4.54545455,6.36363636 C6.05168568,6.36363636 7.27272727,7.58467796 7.27272727,9.09090909"></path>
                <path d="M2.72727273,4.54545455 C2.72727273,4.14141414 2.72727273,3.53535354 2.72727273,2.72727273 C2.72727273,1.22104159 3.94831432,0 5.45454545,0 L7.27272727,0 C8.77895841,0 10,1.22104159 10,2.72727273 L10,8.18181818 C10,9.68804932 8.77895841,10.9090909 7.27272727,10.9090909 L5.45454545,10.9090909 C3.94831432,10.9090909 2.72727273,9.68804932 2.72727273,8.18181818"></path>
            </g>
        </g>
        <g id="Group" transform="translate(240.000000, 0.000000)" stroke="#000000" stroke-linecap="round">
            <g transform="translate(4.000000, 7.000000)">
                <path d="M1.8973666,0.632455532 L16.8434199,5.61447329 C17.3673632,5.78912106 17.6505232,6.35544104 17.4758754,6.87938436 C17.3967579,7.11673702 17.2315419,7.31581005 17.012835,7.43731387 L10.8571429,10.8571429 L10.8571429,10.8571429 L7.43731387,17.012835 C7.16910068,17.4956188 6.56029739,17.6695626 6.07751366,17.4013494 C5.85880679,17.2798456 5.69359084,17.0807725 5.61447329,16.8434199 L0.632455532,1.8973666 C0.457807759,1.37342328 0.740967746,0.807103305 1.26491106,0.632455532 C1.47017787,0.564033263 1.69209979,0.564033263 1.8973666,0.632455532 Z" id="Rectangle" transform="translate(9.500000, 9.500000) rotate(-270.000000) translate(-9.500000, -9.500000) "></path>
                <line x1="18" y1="1" x2="8.10050506" y2="10.8994949" id="Path-7"></line>
            </g>
        </g>
    </g>
</svg>